<?xml version="1.0" encoding="utf-8"?>
<!-- Generator: Adobe Illustrator 23.0.1, SVG Export Plug-In . SVG Version: 6.00 Build 0)  -->
<svg version="1.1" id="Layer_1" xmlns="http://www.w3.org/2000/svg" xmlns:xlink="http://www.w3.org/1999/xlink" x="0px" y="0px"
	 viewBox="0 0 1920 1080" style="enable-background:new 0 0 1920 1080;" xml:space="preserve">
<style type="text/css">
	.st0{fill:none;stroke:#000000;stroke-width:7;stroke-miterlimit:10;}
</style>
<g>
	<path class="st0" d="M519.1,505.5c-2.3,1.2-6.9,2.3-12.8,2.3c-13.7,0-24-8.6-24-24.6c0-15.2,10.3-25.5,25.3-25.5
		c6,0,9.9,1.3,11.5,2.2l-1.5,5.1c-2.4-1.2-5.8-2-9.8-2c-11.4,0-18.9,7.3-18.9,20c0,11.9,6.8,19.5,18.6,19.5c3.8,0,7.7-0.8,10.2-2
		L519.1,505.5z"/>
	<path class="st0" d="M557.4,489.4c0,12.9-8.9,18.5-17.4,18.5c-9.4,0-16.7-6.9-16.7-17.9c0-11.7,7.6-18.5,17.3-18.5
		C550.7,471.5,557.4,478.7,557.4,489.4z M529.8,489.7c0,7.6,4.4,13.4,10.6,13.4c6,0,10.6-5.7,10.6-13.5c0-5.9-3-13.4-10.4-13.4
		C533,476.2,529.8,483.1,529.8,489.7z"/>
	<path class="st0" d="M565.4,481.7c0-3.6-0.1-6.6-0.3-9.4h5.6l0.4,5.8h0.1c1.7-3.3,5.8-6.6,11.5-6.6c4.8,0,12.3,2.9,12.3,14.8v20.8
		h-6.3V487c0-5.6-2.1-10.3-8.1-10.3c-4.2,0-7.4,3-8.5,6.5c-0.3,0.8-0.4,1.9-0.4,3v21h-6.3V481.7z"/>
	<path class="st0" d="M612.7,462.2v10h9.1v4.8h-9.1v18.8c0,4.3,1.2,6.8,4.8,6.8c1.7,0,2.9-0.2,3.7-0.4l0.3,4.8
		c-1.2,0.5-3.2,0.9-5.6,0.9c-3,0-5.3-0.9-6.8-2.7c-1.8-1.9-2.4-5-2.4-9.1v-19h-5.4v-4.8h5.4v-8.4L612.7,462.2z"/>
	<path class="st0" d="M632,490.8c0.1,8.6,5.6,12.1,12,12.1c4.5,0,7.3-0.8,9.6-1.8l1.1,4.5c-2.2,1-6,2.2-11.6,2.2
		c-10.7,0-17.1-7.1-17.1-17.6c0-10.5,6.2-18.8,16.3-18.8c11.4,0,14.4,10,14.4,16.4c0,1.3-0.1,2.3-0.2,3H632z M650.6,486.3
		c0.1-4-1.7-10.3-8.8-10.3c-6.4,0-9.2,5.9-9.7,10.3H650.6z"/>
	<path class="st0" d="M664.6,481.7c0-3.6-0.1-6.6-0.3-9.4h5.6l0.4,5.8h0.1c1.7-3.3,5.8-6.6,11.5-6.6c4.8,0,12.3,2.9,12.3,14.8v20.8
		h-6.3V487c0-5.6-2.1-10.3-8.1-10.3c-4.2,0-7.4,3-8.5,6.5c-0.3,0.8-0.4,1.9-0.4,3v21h-6.3V481.7z"/>
	<path class="st0" d="M711.9,462.2v10h9.1v4.8h-9.1v18.8c0,4.3,1.2,6.8,4.8,6.8c1.7,0,2.9-0.2,3.7-0.4l0.3,4.8
		c-1.2,0.5-3.2,0.9-5.6,0.9c-3,0-5.3-0.9-6.8-2.7c-1.8-1.9-2.4-5-2.4-9.1v-19h-5.4v-4.8h5.4v-8.4L711.9,462.2z"/>
	<path class="st0" d="M742.5,500.6c1.9,1.2,5.2,2.5,8.4,2.5c4.6,0,6.8-2.3,6.8-5.2c0-3-1.8-4.7-6.5-6.4c-6.3-2.2-9.2-5.7-9.2-9.9
		c0-5.6,4.5-10.2,12-10.2c3.5,0,6.6,1,8.6,2.2l-1.6,4.6c-1.4-0.9-3.9-2-7.1-2c-3.7,0-5.8,2.2-5.8,4.8c0,2.9,2.1,4.2,6.6,5.9
		c6,2.3,9.1,5.3,9.1,10.5c0,6.1-4.8,10.4-13,10.4c-3.8,0-7.3-0.9-9.8-2.4L742.5,500.6z"/>
	<path class="st0" d="M801,497.6c0,3.6,0.1,6.8,0.3,9.5h-5.6l-0.4-5.7h-0.1c-1.7,2.8-5.3,6.5-11.5,6.5c-5.5,0-12-3-12-15.3v-20.4
		h6.3v19.3c0,6.6,2,11.1,7.8,11.1c4.2,0,7.2-3,8.4-5.8c0.4-0.9,0.6-2.1,0.6-3.2v-21.4h6.3V497.6z"/>
	<path class="st0" d="M836.4,505.8c-1.7,0.9-5.3,2-10,2c-10.5,0-17.4-7.1-17.4-17.8c0-10.7,7.3-18.5,18.7-18.5
		c3.7,0,7.1,0.9,8.8,1.8l-1.4,4.9c-1.5-0.9-3.9-1.7-7.3-1.7c-8,0-12.3,5.9-12.3,13.2c0,8.1,5.2,13,12.1,13c3.6,0,6-0.9,7.8-1.7
		L836.4,505.8z"/>
	<path class="st0" d="M868.2,505.8c-1.7,0.9-5.3,2-10,2c-10.5,0-17.4-7.1-17.4-17.8c0-10.7,7.3-18.5,18.7-18.5
		c3.7,0,7.1,0.9,8.8,1.8l-1.4,4.9c-1.5-0.9-3.9-1.7-7.3-1.7c-8,0-12.3,5.9-12.3,13.2c0,8.1,5.2,13,12.1,13c3.6,0,6-0.9,7.8-1.7
		L868.2,505.8z"/>
	<path class="st0" d="M878.7,490.8c0.1,8.6,5.6,12.1,12,12.1c4.5,0,7.3-0.8,9.6-1.8l1.1,4.5c-2.2,1-6,2.2-11.6,2.2
		c-10.7,0-17.1-7.1-17.1-17.6c0-10.5,6.2-18.8,16.3-18.8c11.4,0,14.4,10,14.4,16.4c0,1.3-0.1,2.3-0.2,3H878.7z M897.3,486.3
		c0.1-4-1.7-10.3-8.8-10.3c-6.4,0-9.2,5.9-9.7,10.3H897.3z"/>
	<path class="st0" d="M910.4,500.6c1.9,1.2,5.2,2.5,8.4,2.5c4.6,0,6.8-2.3,6.8-5.2c0-3-1.8-4.7-6.5-6.4c-6.3-2.2-9.2-5.7-9.2-9.9
		c0-5.6,4.5-10.2,12-10.2c3.5,0,6.6,1,8.6,2.2l-1.6,4.6c-1.4-0.9-3.9-2-7.1-2c-3.7,0-5.8,2.2-5.8,4.8c0,2.9,2.1,4.2,6.6,5.9
		c6,2.3,9.1,5.3,9.1,10.5c0,6.1-4.8,10.4-13,10.4c-3.8,0-7.3-0.9-9.8-2.4L910.4,500.6z"/>
	<path class="st0" d="M938.9,500.6c1.9,1.2,5.2,2.5,8.4,2.5c4.6,0,6.8-2.3,6.8-5.2c0-3-1.8-4.7-6.5-6.4c-6.3-2.2-9.2-5.7-9.2-9.9
		c0-5.6,4.5-10.2,12-10.2c3.5,0,6.6,1,8.6,2.2l-1.6,4.6c-1.4-0.9-3.9-2-7.1-2c-3.7,0-5.8,2.2-5.8,4.8c0,2.9,2.1,4.2,6.6,5.9
		c6,2.3,9.1,5.3,9.1,10.5c0,6.1-4.8,10.4-13,10.4c-3.8,0-7.3-0.9-9.8-2.4L938.9,500.6z"/>
	<path class="st0" d="M968.9,507.1v-30H964v-4.8h4.9v-1.7c0-4.9,1.1-9.4,4-12.2c2.4-2.3,5.5-3.2,8.5-3.2c2.2,0,4.2,0.5,5.4,1
		l-0.9,4.9c-0.9-0.4-2.2-0.8-4-0.8c-5.4,0-6.8,4.8-6.8,10.1v1.9h8.4v4.8h-8.4v30H968.9z"/>
	<path class="st0" d="M1018.5,497.6c0,3.6,0.1,6.8,0.3,9.5h-5.6l-0.4-5.7h-0.1c-1.7,2.8-5.3,6.5-11.5,6.5c-5.5,0-12-3-12-15.3v-20.4
		h6.3v19.3c0,6.6,2,11.1,7.8,11.1c4.2,0,7.2-3,8.4-5.8c0.4-0.9,0.6-2.1,0.6-3.2v-21.4h6.3V497.6z"/>
	<path class="st0" d="M1029,456h6.3v51.1h-6.3V456z"/>
	<path class="st0" d="M1046,456h6.3v51.1h-6.3V456z"/>
	<path class="st0" d="M1065.3,472.2l7.6,20.6c0.8,2.3,1.7,5,2.2,7.1h0.1c0.6-2.1,1.4-4.8,2.2-7.3l6.9-20.4h6.7l-9.5,24.8
		c-4.5,12-7.6,18.1-12,21.8c-3.1,2.7-6.2,3.8-7.8,4.1l-1.6-5.3c1.6-0.5,3.7-1.5,5.5-3.1c1.7-1.4,3.9-3.8,5.3-7.1
		c0.3-0.6,0.5-1.2,0.5-1.5s-0.1-0.9-0.4-1.7l-12.9-32.1H1065.3z"/>
	<path class="st0" d="M1112.1,456h6.3v51.1h-6.3V456z"/>
	<path class="st0" d="M1160.7,489.4c0,12.9-8.9,18.5-17.4,18.5c-9.4,0-16.7-6.9-16.7-17.9c0-11.7,7.6-18.5,17.3-18.5
		C1153.9,471.5,1160.7,478.7,1160.7,489.4z M1133,489.7c0,7.6,4.4,13.4,10.6,13.4c6,0,10.6-5.7,10.6-13.5c0-5.9-3-13.4-10.4-13.4
		S1133,483.1,1133,489.7z"/>
	<path class="st0" d="M1187.9,507.1l-0.5-4.4h-0.2c-1.9,2.7-5.7,5.2-10.7,5.2c-7.1,0-10.7-5-10.7-10c0-8.4,7.5-13,21-13v-0.7
		c0-2.9-0.8-8.1-7.9-8.1c-3.2,0-6.6,1-9.1,2.6l-1.4-4.2c2.9-1.9,7.1-3.1,11.4-3.1c10.7,0,13.3,7.3,13.3,14.3v13c0,3,0.1,6,0.6,8.4
		H1187.9z M1187,489.3c-6.9-0.1-14.8,1.1-14.8,7.8c0,4.1,2.7,6,6,6c4.5,0,7.4-2.9,8.4-5.8c0.2-0.6,0.4-1.4,0.4-2V489.3z"/>
	<path class="st0" d="M1233.4,456v42.1c0,3.1,0.1,6.6,0.3,9h-5.7l-0.3-6h-0.1c-1.9,3.9-6.2,6.8-11.9,6.8c-8.4,0-14.9-7.1-14.9-17.7
		c-0.1-11.6,7.1-18.7,15.6-18.7c5.3,0,8.9,2.5,10.5,5.3h0.1V456H1233.4z M1227.1,486.4c0-0.8-0.1-1.9-0.3-2.7
		c-0.9-4-4.4-7.3-9.1-7.3c-6.6,0-10.4,5.8-10.4,13.5c0,7.1,3.5,12.9,10.3,12.9c4.2,0,8.1-2.8,9.3-7.6c0.2-0.9,0.3-1.7,0.3-2.7V486.4
		z"/>
	<path class="st0" d="M1247.5,490.8c0.1,8.6,5.6,12.1,12,12.1c4.5,0,7.3-0.8,9.6-1.8l1.1,4.5c-2.2,1-6,2.2-11.6,2.2
		c-10.7,0-17.1-7.1-17.1-17.6c0-10.5,6.2-18.8,16.3-18.8c11.4,0,14.4,10,14.4,16.4c0,1.3-0.1,2.3-0.2,3H1247.5z M1266.1,486.3
		c0.1-4-1.7-10.3-8.8-10.3c-6.4,0-9.2,5.9-9.7,10.3H1266.1z"/>
	<path class="st0" d="M1310.1,456v42.1c0,3.1,0.1,6.6,0.3,9h-5.7l-0.3-6h-0.1c-1.9,3.9-6.2,6.8-11.9,6.8c-8.4,0-14.9-7.1-14.9-17.7
		c-0.1-11.6,7.1-18.7,15.6-18.7c5.3,0,8.9,2.5,10.5,5.3h0.1V456H1310.1z M1303.8,486.4c0-0.8-0.1-1.9-0.3-2.7
		c-0.9-4-4.4-7.3-9.1-7.3c-6.6,0-10.4,5.8-10.4,13.5c0,7.1,3.5,12.9,10.3,12.9c4.2,0,8.1-2.8,9.3-7.6c0.2-0.9,0.3-1.7,0.3-2.7V486.4
		z"/>
	<path class="st0" d="M1318.4,503.4c0-2.7,1.8-4.5,4.3-4.5c2.5,0,4.2,1.9,4.2,4.5c0,2.6-1.7,4.5-4.3,4.5
		C1320.1,507.9,1318.4,505.9,1318.4,503.4z"/>
</g>
<g>
</g>
<g>
</g>
<g>
</g>
<g>
</g>
<g>
</g>
<g>
</g>
<g>
</g>
<g>
</g>
<g>
</g>
<g>
</g>
<g>
</g>
<g>
</g>
<g>
</g>
<g>
</g>
<g>
</g>
</svg>
