<?xml version="1.0" encoding="utf-8"?>
<!-- Generator: Adobe Illustrator 23.0.1, SVG Export Plug-In . SVG Version: 6.00 Build 0)  -->
<svg version="1.1" xmlns="http://www.w3.org/2000/svg" xmlns:xlink="http://www.w3.org/1999/xlink" x="0px" y="0px"
	 viewBox="0 0 1920 1080" style="enable-background:new 0 0 1920 1080;" xml:space="preserve">
<style type="text/css">
	.st0{fill:none;stroke:#000000;stroke-width:2;stroke-miterlimit:10;}
	.st1{font-family:'Consolas';}
	.st2{font-size:60px;}
	.st3{fill:#FFFFFF;stroke:#000000;stroke-width:5;stroke-miterlimit:10;}
	.st4{fill:#FFFFFF;stroke:#000000;stroke-width:100;stroke-miterlimit:10;}
</style>
<g id="Layer_1">
	<text transform="matrix(1 0 0 1 755.6855 763.6523)" class="st0 st1 st2">Loading . . .</text>
	<rect x="344.5" y="303.5" class="st3" width="1179" height="389"/>
</g>
<g id="Layer_2">
	<path class="st0" d="M822,718"/>
	<path class="st0" d="M931,720"/>
	<path class="st4" d="M413,678.5c0-120,0-240,0-360"/>
	<path class="st4" d="M627,679"/>
	<path class="st4" d="M736,679"/>
	<path class="st4" d="M849,679"/>
	<path class="st4" d="M958,679"/>
	<path class="st4" d="M1067,681"/>
	<path class="st4" d="M1176,681"/>
	<path class="st4" d="M529,678.5c0-120,0-240,0-360"/>
	<path class="st4" d="M645,678.5c0-120,0-240,0-360"/>
	<path class="st4" d="M867,678"/>
	<path class="st4" d="M761,678.5c0-120,0-240,0-360"/>
	<path class="st4" d="M877,678.5c0-120,0-240,0-360"/>
	<path class="st4" d="M1091,679"/>
	<path class="st4" d="M1200,679"/>
	<path class="st4" d="M1313,680"/>
	<path class="st4" d="M993,678.5c0-120,0-240,0-360"/>
	<path class="st4" d="M1109,678.5c0-120,0-240,0-360"/>
	<path class="st4" d="M1331,679"/>
	<path class="st4" d="M1225,678.5c0-120,0-240,0-360"/>
	<path class="st4" d="M1342,678.5c0-120,0-240,0-360"/>
	<path class="st4" d="M1458,678.5c0-120,0-240,0-360"/>
</g>
</svg>
