<?xml version="1.0" encoding="utf-8"?>
<!-- Generator: Adobe Illustrator 23.0.1, SVG Export Plug-In . SVG Version: 6.00 Build 0)  -->
<svg version="1.1"
	 id="Layer_1" xmlns:cc="http://creativecommons.org/ns#" xmlns:dc="http://purl.org/dc/elements/1.1/" xmlns:rdf="http://www.w3.org/1999/02/22-rdf-syntax-ns#"
	 xmlns="http://www.w3.org/2000/svg" xmlns:xlink="http://www.w3.org/1999/xlink" x="0px" y="0px" viewBox="0 0 216 49"
	 style="enable-background:new 0 0 216 49; height:150px; width:500px;" xml:space="preserve">  
<g transform="matrix(1.25 0 0 -1.25 0 48.963)">
	<g transform="translate(.81118 .81118)">
		<path class="st0" fill="#A41E3" stroke="#000000" stroke-miterlimit="10" d="M0,0.1h32.5v37.4H0C0,37.5,0,0.1,0,0.1z"/>
		<path class="st1" fill="#FFFFFF" stroke="#000000" stroke-miterlimit="10" d="M2.5,34.9V23.7h2.4v9h22.8v-8.8h2.3v11h-2.3L2.5,34.9L2.5,34.9z M17.6,29.9V7.8h6.3V10h-4v17.6h2.7v-3.8H25
			v6.1h-5L17.6,29.9L17.6,29.9z M7.5,29.9v-6.1h2.3v3.8h2.7V10h-4V7.7h6.3v22.2L7.5,29.9L7.5,29.9z M8.6,5.1V2.9h15.3v2.2H8.6z"/>
		<path class="st2" stroke="#000000" stroke-miterlimit="10" d="M39.3,37.6c-0.1-1.8-0.3-4.3-0.4-6.8H40c0.4,1.7,0.8,2.8,1.3,3.4c0.5,0.7,1.2,1,4.1,1h1.6V18.2
			c0-2.9-0.3-3.2-3.4-3.4v-1.1h11.1v1.1c-3.2,0.2-3.5,0.5-3.5,3.4v17.1h1.9c2.3,0,3.1-0.2,3.7-1c0.6-0.6,1-1.7,1.4-3.5l1.2,0.1
			C59.2,33.1,59,36,59,37.6h-0.8c-0.6-0.7-1-0.9-2-0.9H42.1c-1,0-1.5,0.1-2,0.9L39.3,37.6L39.3,37.6z M61.7,36.7v-1.1
			c2.6-0.2,2.9-0.4,2.9-3.5V18.3c0-3-0.3-3.2-3.4-3.5v-1.1h17.7c0.3,1.1,1,4.3,1.2,5.8L79,19.6c-0.6-1.5-1.2-2.7-1.9-3.4
			c-0.8-0.9-1.9-1.2-4.1-1.2c-1.5,0-2.7,0-3.4,0.4c-0.7,0.4-0.9,1.2-0.9,2.9v6.3h2.8c3,0,3.4-0.2,3.9-2.7h1.2v7h-1.2
			c-0.5-2.5-0.8-2.7-3.9-2.7h-2.7v7.8c0,1.1,0.1,1.2,1.3,1.2h2.1c2.2,0,3.2-0.2,3.7-1c0.6-0.7,1-1.7,1.3-3l1.2,0.2
			c-0.1,2.1-0.3,4.5-0.4,5.2L61.7,36.7L61.7,36.7z M82.6,36.7v-1.1c3.1-0.3,3.3-0.7,3-4.9l-0.5-7.1c-0.2-3.7-0.5-5.5-0.7-6.6
			c-0.2-1.3-0.9-1.9-2.9-2.1v-1.2h8.4v1.2c-2.4,0.2-3.1,0.5-3.2,2.1c-0.1,1.2-0.1,2.8,0,5.8l0.5,9.6h0.1l7.5-18.4h0.9l8.1,18.8h0.2
			l0.1-13.9c0-3.4-0.1-3.7-2.9-4v-1.1h10.1v1.1c-2.9,0.3-3,0.5-3.1,4l-0.3,13.1c-0.1,3.2,0.1,3.4,3,3.7v1.1H104l-7.4-16.3l-7.3,16.3
			L82.6,36.7L82.6,36.7z M113.7,36.7v-1.1c2.5-0.2,2.8-0.4,2.8-3.5V18.3c0-3-0.3-3.2-3-3.5v-1.1H124v1.1c-3.1,0.2-3.4,0.5-3.4,3.5
			v5.1l2.5-0.6c0.4,0,1,0,1.5,0.1c3.7,0.4,7.2,2.6,7.2,7.3c0,2.3-1,4-2.5,5.2c-1.4,1-3.4,1.4-6.1,1.4L113.7,36.7L113.7,36.7z
			 M133.4,36.7v-1.1c2.8-0.2,3.1-0.5,3.1-3.5V18.3c0-3-0.3-3.2-3.4-3.5v-1.1h16.8c0.3,1,1,4.5,1.3,5.8l-1.2,0.3
			c-0.6-1.7-1.2-2.9-1.9-3.6c-0.8-1-2.1-1.2-3.8-1.2c-1.2,0-2.3,0.1-2.9,0.4c-0.7,0.3-0.9,1-0.9,2.7v13.9c0,3,0.3,3.2,3.1,3.5v1.1
			L133.4,36.7L133.4,36.7z M152.7,36.7v-1.1c2.6-0.2,2.9-0.4,2.9-3.5V18.3c0-3-0.3-3.2-3.4-3.5v-1.1h17.7c0.3,1.1,1,4.3,1.2,5.8
			l-1.2,0.2c-0.6-1.5-1.2-2.7-1.9-3.4c-0.8-0.9-1.9-1.2-4.1-1.2c-1.5,0-2.7,0-3.4,0.4c-0.7,0.4-0.8,1.2-0.8,2.9v6.3h2.8
			c3,0,3.4-0.2,3.9-2.7h1.2v7h-1.2c-0.5-2.5-0.8-2.7-3.9-2.7h-2.7v7.8c0,1.1,0.1,1.2,1.3,1.2h2.1c2.2,0,3.2-0.2,3.7-1
			c0.6-0.7,1-1.7,1.3-3l1.2,0.2c-0.1,2.1-0.3,4.5-0.4,5.2L152.7,36.7L152.7,36.7z M122.5,35.4c2.4,0,4.8-1.4,4.8-5.4
			c0-4.7-2.8-5.7-4.5-5.7c-0.9,0-1.7,0.2-2.2,0.4v9c0,0.7,0.1,1.1,0.4,1.3C121.2,35.2,121.7,35.4,122.5,35.4L122.5,35.4z M128.9,8.9
			c-1.7,0-3-1-3-2.5v0c0-1.6,1-2.1,2.9-2.6c1.6-0.4,2-0.7,2-1.3v0c0-0.6-0.6-1.1-1.5-1.1c-1.1,0-1.9,0.4-2.7,1.1l-0.9-1.1
			c1-0.9,2.3-1.4,3.6-1.4c1.8,0,3.1,1,3.1,2.6v0c0,1.4-0.9,2.1-2.8,2.5c-1.7,0.4-2.1,0.7-2.1,1.4v0c0,0.6,0.5,1,1.4,1
			c0.8,0,1.6-0.3,2.4-0.9l0.8,1.2C131.2,8.5,130.2,8.9,128.9,8.9L128.9,8.9z M44.2,8.8v-5c0-2.5,1.4-3.8,3.7-3.8
			c2.3,0,3.7,1.3,3.7,3.9v4.9h-1.5v-5c0-1.6-0.8-2.4-2.2-2.4c-1.4,0-2.2,0.9-2.2,2.5v4.9L44.2,8.8L44.2,8.8z M59.1,8.8V0.1h1.5v6.2
			l4.8-6.2h1.3v8.7h-1.5v-6l-4.6,6H59.1L59.1,8.8z M74.4,8.8V0.1h1.5v8.7H74.4z M82.6,8.8l3.6-8.7h1.4l3.6,8.7h-1.6l-2.6-6.7
			l-2.6,6.7H82.6z M97.8,8.8V0.1h6.5v1.4h-5v2.3h4.3v1.4h-4.3v2.3h4.9v1.4L97.8,8.8L97.8,8.8z M111.8,8.8V0.1h1.5v3h1.9l2.1-3h1.8
			l-2.3,3.3c1.2,0.3,2.1,1.2,2.1,2.6v0c0,0.8-0.3,1.4-0.7,1.9c-0.6,0.5-1.4,0.9-2.5,0.9L111.8,8.8L111.8,8.8z M140,8.8V0.1h1.5v8.7
			H140z M148.7,8.8V7.4h2.7V0.1h1.5v7.3h2.8v1.4H148.7L148.7,8.8z M161.2,8.7l3.4-5.3V0.1h1.5v3.5l3.4,5.2h-1.7l-2.5-3.8l-2.4,3.8
			L161.2,8.7L161.2,8.7z M113.3,7.4h2.2c1.1,0,1.8-0.5,1.8-1.4v0c0-0.9-0.7-1.5-1.8-1.5h-2.2L113.3,7.4L113.3,7.4z"/>
	</g>
</g>
</svg>
